<svg width="16" height="16" viewBox="0 0 16 16" fill="none" xmlns="http://www.w3.org/2000/svg">
<g id="logos/quix" clip-path="url(#clip0_812_3896)">
<g id="Union">
<path d="M2.21834 2H13.781C13.8098 1.99984 13.8383 2.00537 13.8649 2.01627C13.8915 2.02718 13.9157 2.04324 13.936 2.06353C13.9564 2.08383 13.9726 2.10796 13.9836 2.13453C13.9946 2.1611 14.0002 2.18958 14.0002 2.21834V8.88403C14.0002 8.91268 13.9946 8.94108 13.9837 8.96755C13.9728 8.99405 13.9567 9.01812 13.9365 9.03839C13.9162 9.05867 13.8922 9.07477 13.8657 9.08574C13.8393 9.09671 13.8109 9.10236 13.7822 9.10236H12.0355C12.0069 9.10236 11.9785 9.09671 11.9521 9.08574C11.9256 9.07477 11.9016 9.05867 11.8813 9.03839C11.8611 9.01812 11.845 8.99405 11.8341 8.96755C11.8232 8.94108 11.8176 8.91268 11.8176 8.88403V4.1817H4.1817V11.8151H8.87238C8.901 11.8151 8.92935 11.8208 8.95577 11.8317C8.98222 11.8427 9.00624 11.8587 9.02649 11.879C9.04671 11.8992 9.06276 11.9232 9.07371 11.9497C9.08466 11.9761 9.09031 12.0044 9.09031 12.0331V13.7797C9.09031 13.8084 9.08466 13.8367 9.07371 13.8632C9.06276 13.8896 9.04671 13.9136 9.02649 13.9338C9.00624 13.9541 8.98222 13.9701 8.95577 13.9811C8.92935 13.992 8.901 13.9977 8.87238 13.9977H2.21834C2.18968 13.9977 2.1613 13.9921 2.13481 13.9812C2.10833 13.9703 2.08425 13.9542 2.06397 13.934C2.04369 13.9138 2.02761 13.8897 2.01663 13.8632C2.00565 13.8368 2 13.8084 2 13.7797V2.21834C2 2.16043 2.023 2.1049 2.06395 2.06395C2.1049 2.02301 2.16043 2 2.21834 2Z" fill="white"/>
<path d="M6.90849 6.90835H9.09019V9.09005H6.90849V6.90835Z" fill="white"/>
<path d="M9.69035 9.36286H11.2175C11.3982 9.36286 11.5448 9.5094 11.5448 9.69016V11.2173C11.5448 11.398 11.3982 11.5446 11.2175 11.5446H9.69035C9.50959 11.5446 9.36306 11.398 9.36306 11.2173V9.69016C9.36306 9.5094 9.50959 9.36286 9.69035 9.36286Z" fill="white"/>
<path d="M12.7445 13.9987C13.4372 13.9987 13.9988 13.4371 13.9988 12.7444C13.9988 12.0517 13.4372 11.4901 12.7445 11.4901C12.0518 11.4901 11.4902 12.0517 11.4902 12.7444C11.4902 13.4371 12.0518 13.9987 12.7445 13.9987Z" fill="white"/>
</g>
</g>
<defs>
<clipPath id="clip0_812_3896">
<rect width="16" height="16" fill="white"/>
</clipPath>
</defs>
</svg>
