<svg width="40" height="40" viewBox="0 0 40 40" fill="none" xmlns="http://www.w3.org/2000/svg">
<rect width="40" height="40" rx="4" fill="#15184A"/>
<path d="M22.1804 17.817H17.817V22.1804H22.1804V17.817Z" fill="#0064FF"/>
<path d="M26.4348 22.7261H23.3807C23.0191 22.7261 22.7261 23.0191 22.7261 23.3807V26.4348C22.7261 26.7963 23.0191 27.0894 23.3807 27.0894H26.4348C26.7963 27.0894 27.0894 26.7963 27.0894 26.4348V23.3807C27.0894 23.0191 26.7963 22.7261 26.4348 22.7261Z" fill="#BD2EFF"/>
<path d="M29.4889 31.9975C30.8743 31.9975 31.9975 30.8743 31.9975 29.4889C31.9975 28.1035 30.8743 26.9803 29.4889 26.9803C28.1035 26.9803 26.9803 28.1035 26.9803 29.4889C26.9803 30.8743 28.1035 31.9975 29.4889 31.9975Z" fill="#FF7828"/>
<path d="M31.5616 7.99989H8.43667C8.32086 7.99989 8.20979 8.04589 8.1279 8.12778C8.04601 8.20967 8 8.32074 8 8.43655V31.559C8 31.6164 8.0113 31.6731 8.03326 31.726C8.05521 31.779 8.08739 31.8271 8.12795 31.8675C8.16851 31.908 8.21665 31.9401 8.26962 31.9619C8.3226 31.9838 8.37936 31.995 8.43667 31.9949H21.7446C21.8018 31.9949 21.8585 31.9836 21.9114 31.9617C21.9642 31.9398 22.0123 31.9077 22.0528 31.8672C22.0932 31.8268 22.1253 31.7787 22.1472 31.7259C22.1691 31.673 22.1804 31.6163 22.1804 31.559V28.0657C22.1804 28.0085 22.1691 27.9518 22.1472 27.899C22.1253 27.8461 22.0932 27.798 22.0528 27.7575C22.0123 27.7171 21.9642 27.685 21.9114 27.6631C21.8585 27.6412 21.8018 27.6299 21.7446 27.6299H12.3633V12.3632H27.635V21.7678C27.6349 21.825 27.6461 21.8818 27.668 21.9348C27.6898 21.9878 27.7219 22.0359 27.7623 22.0765C27.8028 22.117 27.8509 22.1492 27.9039 22.1712C27.9568 22.1931 28.0135 22.2044 28.0708 22.2044H31.5641C31.6215 22.2044 31.6782 22.1931 31.7311 22.1712C31.7841 22.1492 31.8322 22.117 31.8726 22.0765C31.9131 22.0359 31.9452 21.9878 31.9671 21.9348C31.9889 21.8818 32.0001 21.825 32 21.7678V8.43655C32.0001 8.37904 31.9888 8.32207 31.9668 8.26893C31.9448 8.21579 31.9125 8.16754 31.8718 8.12695C31.831 8.08635 31.7826 8.05423 31.7294 8.03242C31.6762 8.01061 31.6192 7.99956 31.5616 7.99989Z" fill="white"/>
</svg>
